# xmcd
#
# Track frame offsets: 
#        150
#        16171
#        35724
#        55326
#        72964
#        90166
#        105936
#        125286
#        145612
#        166113
#        191296
#
# Disc length: 2961 seconds
#
# Revision: 0
# Processed by: cddbd v1.5.2PL0 Copyright (c) Steve Scherf et al.
# Submitted via: ExactAudioCopy v0.99pb5
#
DISCID=7d0b8f0b
DTITLE=Laineen Kasperi - Olet Tässä [CD2)
DYEAR=2010
DGENRE=Rap
TTITLE0=Urut soi
TTITLE1=Myö
TTITLE2=Keskiviikko (feat. Raipati and Ryi)
TTITLE3=Uuteen aamuun
TTITLE4=Stydi tilanne
TTITLE5=Pulikka
TTITLE6=Aikuinen
TTITLE7=Elän liikaa (feat. Koovee and Ryi)
TTITLE8=Pelkoa and inhoa
TTITLE9=Älä ota ittees (feat. Kripu)
TTITLE10=Vallankumous (feat. Yona)
EXTD=
EXTT0=
EXTT1=
EXTT2=
EXTT3=
EXTT4=
EXTT5=
EXTT6=
EXTT7=
EXTT8=
EXTT9=
EXTT10=
PLAYORDER=
